<svg width="24" height="24" fill="none" xmlns="http://www.w3.org/2000/svg"><g clip-path="url(#clip0_310_15043)"><path d="M.512 11.856c0 2.017.53 3.986 1.54 5.721l-1.636 5.93 6.115-1.591a11.603 11.603 0 005.513 1.392h.005c6.357 0 11.532-5.133 11.535-11.443a11.327 11.327 0 00-3.376-8.095 11.509 11.509 0 00-8.16-3.356C5.69.414.515 5.547.512 11.856" fill="url(#paint0_linear_310_15043)"/><path d="M9.063 6.898c-.223-.494-.459-.504-.671-.512-.175-.008-.374-.007-.573-.007-.199 0-.522.074-.796.37-.274.297-1.045 1.014-1.045 2.471 0 1.458 1.07 2.867 1.22 3.064.148.198 2.065 3.285 5.1 4.472 2.522.987 3.035.791 3.583.741.547-.049 1.766-.716 2.015-1.408.249-.691.249-1.284.174-1.408-.074-.124-.274-.198-.572-.346-.299-.148-1.767-.865-2.04-.964-.274-.099-.473-.148-.672.149-.2.296-.771.963-.945 1.16-.175.199-.349.223-.647.075-.3-.149-1.26-.46-2.402-1.47-.887-.785-1.486-1.755-1.66-2.052-.175-.296-.02-.457.13-.604.135-.133.3-.346.448-.52.15-.172.2-.296.299-.493.1-.198.05-.37-.025-.52-.075-.147-.655-1.613-.92-2.198z" fill="#fff"/></g><defs><linearGradient id="paint0_linear_310_15043" x1="1158.85" y1="2309.67" x2="1158.85" y2=".414" gradientUnits="userSpaceOnUse"><stop stop-color="#1FAF38"/><stop offset="1" stop-color="#60D669"/></linearGradient><clipPath id="clip0_310_15043"><path fill="#fff" d="M0 0h24v24H0z"/></clipPath></defs></svg>