<svg width="80" height="80" viewBox="0 0 80 80" fill="none"><path fill-rule="evenodd" clip-rule="evenodd" d="M52.379 21.221L30.078 43.522a.164.164 0 00.025.254c.027.018.06.028.092.028 6.224-.012 9.656-.015 12.427.858a.161.161 0 00.166-.04l16.496-16.496a3.644 3.644 0 013.12-1.07l6.345.792c1.188.148 2.273-.224 3.12-1.071l4.352-4.352a3.633 3.633 0 001.097-2.806l-.345-8.58a.165.165 0 00-.281-.11l-8.066 8.065a2.15 2.15 0 01-3.034 0l-4.081-4.08a2.15 2.15 0 010-3.035l8.065-8.066a.165.165 0 00-.11-.281l-8.58-.345a3.633 3.633 0 00-2.806 1.097l-4.352 4.352a3.645 3.645 0 00-1.07 3.12l.792 6.344a3.648 3.648 0 01-1.071 3.121zm5.3 44.893c-1.814.746-3.223 2.436-3.223 5.076a5.629 5.629 0 1011.258 0c0-2.696-1.429-4.33-3.279-5.1v.002c-1.557-.621-3.191-.561-4.752.02a.043.043 0 00-.005.002zm-34.774 1.095a5.63 5.63 0 10-7.96 7.963 5.63 5.63 0 007.96-7.963zm26.92-14.555c1.522 1.339 5.507 2.83 7.296 3.332 5.274 1.48 11.152 2.637 16.356 3.811 2.359.533 4.41 2.07 4.786 4.43.239 1.493.08 3.34.004 5.073-.016.383-.354.651-.75.651h-9.26a.164.164 0 01-.163-.141c-.445-3.054-2.365-5.058-4.74-6.009v-.002c-4.633-1.851-10.47.482-11.277 6.01a.163.163 0 01-.163.142H27.077a.164.164 0 01-.163-.137 8.086 8.086 0 00-2.258-4.356c-4.435-4.435-11.96-2.334-13.558 3.614a.165.165 0 01-.193.12l-7.808-1.605c-.742-.152-1.487-.652-1.487-1.418v-9.443c0-1.314 1.16-2.203 2.446-2.488l7.687-1.7c.267-.06.507-.206.682-.416 4.862-5.856 5.555-5.856 15.27-5.85h2.414c6.294-.015 9.468-.006 11.874.781 2.337.765 4.19 2.388 7.842 5.6zm10.808-22.329a.162.162 0 01.035-.177c.418-.426.724-.79 1.437-.701l6.345.792a6.068 6.068 0 004.72-1.388.166.166 0 01.226.012c.02.02.033.045.04.072l1.9 7.089a.164.164 0 01-.07.181l-5.56 3.611a.16.16 0 00-.075.122 26.518 26.518 0 01-2.22 8.26.16.16 0 00.004.143l3.014 5.916a.163.163 0 01-.03.192l-1.694 1.693a.16.16 0 01-.151.045c-3.636-.791-7.276-1.6-10.765-2.58-.788-.222-1.977-.635-3.153-1.124a.165.165 0 01-.037-.283c6.818-5.216 9.098-14.205 6.034-21.875zM29.95 24.028c-5.288 5.289-6.759 12.95-4.41 19.559a.165.165 0 01-.155.22c-6.618.024-8.78.31-11.76 3.25a.166.166 0 01-.234 0 .165.165 0 01-.042-.075l-2.257-8.425a.163.163 0 01.07-.18l5.56-3.612a.162.162 0 00.074-.122 26.513 26.513 0 012.22-8.26.161.161 0 00-.003-.143l-3.015-5.916a.162.162 0 01.03-.191l10.028-10.027a.163.163 0 01.191-.03l5.91 3.01a.16.16 0 00.144.004 26.759 26.759 0 018.263-2.214.16.16 0 00.122-.074L44.3 5.238a.162.162 0 01.181-.07l7.09 1.9a.165.165 0 01.083.266 6.07 6.07 0 00-1.388 4.72l.793 6.346c.09.712-.276 1.019-.702 1.436a.162.162 0 01-.177.035c-6.754-2.697-14.76-1.312-20.229 4.157z" fill="currentColor"/></svg>