<svg width="80" height="80" viewBox="0 0 80 80" fill="none"><g clip-path="url(#clip0_310_15806)"><path d="M69.617 45.401C68.263 35.37 62.732 28.058 55.92 28.058H24.083c-6.818 0-12.346 7.309-13.704 17.34-4.917 2.488-7.466 7.646-7.466 13.621 0 4.6 1.507 8.71 4.435 11.499V80h11.8v-5.765h41.704V80h11.8v-9.482c2.925-2.79 4.434-6.899 4.434-11.498-.002-5.974-2.551-11.134-7.469-13.619zM24.08 31.6h31.834c4.485 0 8.41 5.317 9.871 12.512a17.498 17.498 0 00-2.303-.254c0-.016.005-.03.005-.042 0-4.176-3.395-7.573-7.573-7.573-4.179 0-7.573 3.397-7.573 7.573H17.489c-1.166 0-2.259.101-3.288.293 1.463-7.195 5.392-12.51 9.88-12.51zm37.047 12.218H50.71a5.217 5.217 0 015.213-5.213 5.215 5.215 0 015.205 5.213zM15.723 63.966a4.943 4.943 0 114.572-3.051 4.94 4.94 0 01-4.572 3.05zm38.628-.877h-28.71a1.181 1.181 0 01-1.182-1.182 1.178 1.178 0 011.181-1.175h28.711a1.179 1.179 0 110 2.357zm0-4.328h-28.71a1.181 1.181 0 01-.835-2.014 1.178 1.178 0 01.834-.343h28.711a1.179 1.179 0 110 2.357zm9.92 5.205a4.944 4.944 0 110-9.888 4.944 4.944 0 010 9.888zm-5.688-49.337c1.693 2.709 4.677 4.525 8.109 4.528 3.757 0 6.973-2.184 8.544-5.334l-6.376-.002c-2.259.005-4.088-1.893-4.088-4.245.003-2.339 1.832-4.237 4.085-4.243h6.374C73.67 2.184 70.45.003 66.687 0c-3.427-.003-6.41 1.818-8.107 4.533H18.26c-1.414-1.626-3.47-2.669-5.79-2.669a7.71 7.71 0 00-7.717 7.717c0 4.256 3.453 7.709 7.712 7.714 2.32 0 4.376-1.053 5.794-2.666h40.324zM10.441 13.1L8.409 9.584l2.034-3.515 4.056-.005 2.032 3.52-2.029 3.517h-4.061z" fill="currentColor"/></g><defs><clipPath id="clip0_310_15806"><path fill="currentColor" d="M0 0h80v80H0z"/></clipPath></defs></svg>