<svg width="80" height="80" viewBox="0 0 80 80" fill="none"><g clip-path="url(#clip0_310_15787)" fill="currentColor"><path d="M71.25 35.188c-19.484-9.032-38.593-16.532-56.531-19.22C6.281 14.704-1.015 21.814.109 30.25c1.157 8.563 2.922 16.203 5.797 22.172 2.36 4.89 7.032 8.313 12.391 9.25C33.922 64.453 50 64.828 66.422 63.141c7.719-.782 13.797-7.328 13.547-15.11.031-4.89-3.219-10.28-8.719-12.843zm-52.39 16.03c0 1.907-2.172 3.016-3.72 1.891-5.187-3.75-7.405-17.437-8.265-23.78-.531-3.97 2.906-7.22 6.828-6.641l.047.015c2.969.453 5.157 3 5.157 6L18.86 51.22zm17.078 5.079c-7.453-.016-13.485-6.078-13.469-13.547.016-7.453 6.078-13.484 13.516-13.469 7.468.016 13.484 6.078 13.468 13.516-.015 7.484-6.047 13.516-13.515 13.5zm26.36.047c-4.673-.016-8.47-3.813-8.454-8.5.016-4.672 3.813-8.469 8.484-8.453 4.688.015 8.47 3.812 8.453 8.484-.015 4.688-3.796 8.484-8.484 8.469z"/><path d="M35.969 34.406c-4.625-.015-8.39 3.75-8.407 8.375-.015 4.64 3.75 8.422 8.375 8.422 4.626 0 8.391-3.75 8.407-8.39.015-4.641-3.75-8.407-8.375-8.407zM62.312 44.5a3.377 3.377 0 00-3.374 3.36c0 1.859 1.5 3.374 3.359 3.374 1.86 0 3.36-1.5 3.36-3.375.015-1.843-1.485-3.343-3.344-3.359z"/></g><defs><clipPath id="clip0_310_15787"><path fill="currentColor" d="M0 0h80v80H0z"/></clipPath></defs></svg>