<svg width="80" height="80" viewBox="0 0 80 80" fill="none"><path d="M18.333 10.001h43.334a1.665 1.665 0 001.54-2.304 1.666 1.666 0 00-1.54-1.029H18.333a1.666 1.666 0 100 3.333zm5.297 4.053C22.54 15.633 20 19.536 20 21.668c0 2.757 2.243 5 5 5s5-2.243 5-5c0-2.132-2.54-6.035-3.63-7.614-.618-.898-2.122-.898-2.74 0zm13.333 3.333c-1.09 1.58-3.63 5.482-3.63 7.614 0 2.758 2.243 5 5 5 2.758 0 5-2.242 5-5 0-2.132-2.539-6.035-3.63-7.614-.618-.898-2.122-.898-2.74 0zm13.333-3.333c-1.09 1.579-3.63 5.482-3.63 7.614 0 2.757 2.244 5 5 5 2.758 0 5-2.243 5-5 0-2.132-2.538-6.035-3.629-7.614-.618-.898-2.122-.898-2.74 0zM75.82 46.227l-16.484-2.726-4.798-7.197a6.657 6.657 0 00-5.547-2.97H24.343a6.655 6.655 0 00-5.547 2.97l-4.826 7.238-10.18 2.545A4.994 4.994 0 000 50.937v8.374c0 1.965.765 3.812 2.155 5.202a7.412 7.412 0 005.202 2.155h4.31c.058 0 .108-.027.165-.033.761 3.815 4.131 6.7 8.168 6.7 4.035 0 7.405-2.883 8.168-6.696.055.006.106.032.162.032L50 66.668c.059 0 .108-.027.165-.033.762 3.814 4.131 6.7 8.168 6.7 4.037 0 7.407-2.885 8.169-6.7.057.006.106.033.165.033h7.304c1.27 0 2.412-.705 2.982-1.842l2.695-5.394c.06-.117.104-.24.134-.368l.175-.746c.03-.123.043-.25.043-.377v-6.782a4.982 4.982 0 00-4.18-4.932zM20 70.001c-2.757 0-5-2.242-5-5 0-2.757 2.243-5 5-5s5 2.243 5 5c0 2.758-2.243 5-5 5zm-1.886-26.666l3.455-5.183a3.326 3.326 0 012.774-1.484H48.99a3.325 3.325 0 012.773 1.484l3.455 5.183H18.114zM58.334 70c-2.758 0-5-2.242-5-5 0-2.757 2.242-5 5-5 2.756 0 5 2.243 5 5 0 2.758-2.244 5-5 5z" fill="currentColor"/></svg>