<svg width="80" height="80" viewBox="0 0 80 80" fill="none"><path fill-rule="evenodd" clip-rule="evenodd" d="M14.177 56.508a2.5 2.5 0 013.533 3.536l-9.25 9.25a2.501 2.501 0 01-3.537-3.536l9.254-9.25z" fill="currentColor"/><path fill-rule="evenodd" clip-rule="evenodd" d="M16.486 62.358a2.501 2.501 0 013.537-3.537l2.314 2.314a2.507 2.507 0 010 3.536 2.507 2.507 0 01-3.537 0l-2.314-2.313zM45.28 41.725a.83.83 0 00-.244.59v4.176a5.83 5.83 0 01-1.706 4.124l-3.607 3.603a5.82 5.82 0 01-8.25 0L20 42.745a5.833 5.833 0 010-8.25l3.607-3.604a5.833 5.833 0 014.123-1.706h4.177a.853.853 0 00.59-.247L47.662 13.77a5.833 5.833 0 018.25 0l4.534 4.537a5.833 5.833 0 010 8.25L45.28 41.725zM9.55 55.42a2.501 2.501 0 013.536-3.536l2.31 2.313a2.498 2.498 0 11-3.533 3.533L9.55 55.42z" fill="currentColor"/><path fill-rule="evenodd" clip-rule="evenodd" d="M58.18 19.575a2.5 2.5 0 01-3.537-3.534l3.38-3.38a9.167 9.167 0 0112.964 0l2.136 2.134a9.167 9.167 0 010 12.963l-9.163 9.16a2.498 2.498 0 11-3.533-3.533l9.16-9.164a4.167 4.167 0 000-5.89l-2.134-2.136a4.167 4.167 0 00-5.893 0l-3.38 3.38zM27.46 54.918l-7.437 7.44a2.5 2.5 0 01-3.536 0l-4.624-4.627a2.498 2.498 0 010-3.533l7.437-7.44 8.16 8.16z" fill="currentColor"/></svg>