<svg width="80" height="80" viewBox="0 0 80 80" fill="none"><path d="M54.929 63.04c-4.72-2.89-9.78-5.738-14.69-8.495V52.82c.146-.176.288-.354.428-.535 1.625-2.117 2.848-4.565 3.619-7.192 2.734-.98 4.794-3.831 4.794-6.779 0-1.52-.558-2.864-1.57-3.781a4.464 4.464 0 00-1.608-.932V33.6c1.088-2.682 1.705-5.386 1.705-7.752 0-9.04-7.74-16.395-17.252-16.395-9.514 0-17.254 7.355-17.254 16.395 0 2.366.621 5.07 1.708 7.753-.61.2-1.17.53-1.642.968-.989.916-1.533 2.246-1.533 3.745 0 2.947 2.06 5.798 4.794 6.779.77 2.627 1.992 5.075 3.617 7.191.149.193.3.383.456.57v1.677c-4.675 2.618-9.907 5.558-14.723 8.51-1.821 1.123-2.866 2.99-2.866 5.124v10.052a1.092 1.092 0 001.092 1.092h52.701a1.09 1.09 0 001.092-1.092V68.166c0-2.136-1.045-4.004-2.868-5.125zm-9.766-27.384c.327.098.628.268.88.497.55.498.853 1.266.853 2.162 0 1.458-.803 2.955-1.961 3.916.205-1.269.308-2.551.308-3.836 0-.7-.01-1.694-.08-2.739zm-31.345 2.66c0-.885.296-1.646.833-2.145.244-.226.535-.396.851-.499a78.995 78.995 0 00-.031 2.57v.153c0 1.295.104 2.578.307 3.835-1.157-.96-1.96-2.457-1.96-3.914zm3.848.673a27.833 27.833 0 002.153 2.824 1.09 1.09 0 001.457.172c2.635-1.878 5.774-2.87 9.079-2.87 3.306 0 6.447.992 9.082 2.87a1.085 1.085 0 001.086.105 1.09 1.09 0 00.37-.277 27.718 27.718 0 002.155-2.827c-.12 4.424-1.567 8.655-4.113 11.97-2.466 3.21-5.593 5.05-8.58 5.05s-6.114-1.84-8.578-5.05c-2.545-3.314-3.991-7.544-4.11-11.967zm20.39 16.064v.13c0 4.24-3.45 7.688-7.689 7.688-4.235 0-7.681-3.449-7.681-7.687v-.105c2.364 2.006 5.039 3.111 7.669 3.111 2.641 0 5.328-1.114 7.7-3.137zm9.972 22.074H12.682V61.478a452.33 452.33 0 014.433-2.537v12.28a1.092 1.092 0 001.092 1.092h24.3a1.091 1.091 0 001.09-1.092V58.944c1.484.84 2.965 1.686 4.431 2.537v15.646zm23.1-48.263a1.095 1.095 0 00-1.447.44 1.1 1.1 0 00-.139.533v4.433a2.916 2.916 0 01-2.913 2.913 2.916 2.916 0 01-2.913-2.913v-4.433a1.096 1.096 0 00-1.049-1.091 1.095 1.095 0 00-.538.118 9.91 9.91 0 00-5.446 8.873 9.934 9.934 0 003.952 7.94v28.255a5.998 5.998 0 005.994 5.99 5.996 5.996 0 005.99-5.99V45.677a9.928 9.928 0 003.957-7.94 9.908 9.908 0 00-5.448-8.873zm-3.407 36.519a1.092 1.092 0 01-2.183 0v-8.987a1.092 1.092 0 112.183 0v8.987zm8.792-48.755L74.27 14.84c.019-.291.028-.584.024-.882l2.337-1.669a1.094 1.094 0 00.385-1.28l-1.51-3.94a1.095 1.095 0 00-1.142-.693l-2.857.323c-.193-.22-.395-.433-.604-.638l.473-2.83a1.092 1.092 0 00-.632-1.178l-3.86-1.72a1.091 1.091 0 00-1.297.316l-1.792 2.246a11.769 11.769 0 00-.876-.024L61.249.536A1.088 1.088 0 0059.97.151l-3.943 1.511a1.092 1.092 0 00-.694 1.143l.323 2.854c-.22.193-.434.395-.638.605l-2.832-.473a1.09 1.09 0 00-1.178.634l-1.715 3.855a1.092 1.092 0 00.318 1.297l2.243 1.789c-.019.294-.026.588-.022.883l-2.335 1.668a1.092 1.092 0 00-.385 1.28l1.513 3.938a1.09 1.09 0 001.141.694l2.851-.323c.193.221.395.435.605.64l-.47 2.831a1.093 1.093 0 00.634 1.176l3.853 1.719a1.093 1.093 0 001.3-.315l1.79-2.247c.294.02.586.028.877.023l1.67 2.336a1.089 1.089 0 001.278.385l3.942-1.512a1.094 1.094 0 00.696-1.142l-.323-2.852c.22-.195.433-.398.638-.608l2.83.474a1.093 1.093 0 001.178-.633l1.715-3.855a1.092 1.092 0 00-.317-1.298zm-8.083-.134a5.882 5.882 0 01-7.758 2.975 5.884 5.884 0 01-2.98-7.758 5.887 5.887 0 017.758-2.975 5.837 5.837 0 013.097 3.26 5.835 5.835 0 01-.117 4.498z" fill="currentColor"/></svg>