<svg width="80" height="80" viewBox="0 0 80 80" fill="none"><path d="M65 47.499h2.5a2.5 2.5 0 000-5h-5.955l-2.928-5.855a7.458 7.458 0 00-6.707-4.145H28.09a7.458 7.458 0 00-6.707 4.145l-2.928 5.855H12.5a2.5 2.5 0 000 5H15l-3.5 4.665a7.55 7.55 0 00-1.5 4.5v5.835a4.982 4.982 0 002.5 4.305v3.195a5 5 0 005 5h5a5 5 0 005-5v-2.5h25v2.5a5 5 0 005 5h5a5 5 0 005-5v-3.195a4.983 4.983 0 002.5-4.305v-5.833a7.537 7.537 0 00-1.5-4.5L65 47.5zm-5 7.5a3.75 3.75 0 110 7.5 3.75 3.75 0 010-7.5zm-38-8.5c.09-.121.17-.249.238-.383l3.617-7.235A2.5 2.5 0 0128.09 37.5h23.82a2.5 2.5 0 012.235 1.382l3.617 7.235c.069.134.148.262.238.383l.083.107-.71.473A2.486 2.486 0 0156 47.5H24.012c-.493 0-.975-.146-1.384-.42l-.71-.473L22 46.5zm-2 8.5a3.75 3.75 0 110 7.5 3.75 3.75 0 010-7.5zm14.95-30a12.5 12.5 0 01-13.053 4.62 12.359 12.359 0 01-8.094-6.558 1.25 1.25 0 011.137-1.812h5.783a2.5 2.5 0 002.165-1.25l.72-1.25a2.5 2.5 0 000-2.5l-.72-1.25a2.501 2.501 0 00-2.166-1.25H14.94a1.25 1.25 0 01-1.137-1.805 12.342 12.342 0 018.095-6.565 12.5 12.5 0 0113.052 4.62H59.7a7.703 7.703 0 017.65 6 7.512 7.512 0 01-7.35 9H34.95z" fill="currentColor"/></svg>