<svg width="80" height="80" viewBox="0 0 80 80" fill="none"><path d="M78.333 23.333H75c-.876 0-1.602.676-1.663 1.548-.006.078-.573 7.158-4.605 8.286l-3.546-10.631A18.31 18.31 0 0047.793 10H28.975C17.06 10 6.5 17.148 2.077 28.21A28.821 28.821 0 000 38.975c0 7.916 6.442 14.358 14.359 14.358H55c10.492 0 18.43 15.59 18.51 15.746A1.667 1.667 0 0075 70h3.333A1.667 1.667 0 0080 68.334V25a1.667 1.667 0 00-1.667-1.667zm-22.402 20H14.359A4.364 4.364 0 0110 38.975c0-2.426.456-4.797 1.357-7.048C14.258 24.683 21.172 20 28.975 20h18.818a8.319 8.319 0 017.904 5.698l4.091 12.27a4.075 4.075 0 01-3.858 5.364z" fill="currentColor"/><path d="M27.155 27.156l-10 10a1.666 1.666 0 102.357 2.357l10-10a1.666 1.666 0 10-2.357-2.357zm-9.31 5.69l3.333-3.333a1.666 1.666 0 10-2.356-2.357l-3.334 3.334a1.666 1.666 0 102.357 2.356z" fill="currentColor"/></svg>