<svg width="80" height="80" viewBox="0 0 80 80" fill="none"><path d="M50.774 10.758H4.462a2.414 2.414 0 00-2.438 2.437v29.25a2.429 2.429 0 002.438 2.437h46.312a2.445 2.445 0 002.437-2.437v-29.25a2.429 2.429 0 00-2.437-2.437zM2 57.07a2.445 2.445 0 002.437 2.437H7.07c1.024-5.094 5.216-9.092 10.432-9.75H4.462A6.889 6.889 0 012 49.318v7.752z" fill="currentColor"/><path d="M72.54 59.507h3.022A2.445 2.445 0 0078 57.07V35.718c0-3.827-9.335-12.773-14.454-12.773h-5.46v19.5c0 4.022-3.29 7.312-7.313 7.312H20.671c5.216.659 9.409 4.656 10.432 9.75h17.404c1.12-5.606 6.069-9.871 12.016-9.871 5.923 0 10.896 4.265 12.017 9.871zM62.083 28.942c12.48-.61 11.968 12.284 11.968 12.284H62.083V28.942z" fill="currentColor"/><path d="M60.514 69.242a7.361 7.361 0 100-14.722 7.361 7.361 0 000 14.722zm-41.437 0a7.361 7.361 0 100-14.723 7.361 7.361 0 000 14.723z" fill="currentColor"/></svg>