<svg width="40" height="576" viewBox="0 0 40 576" fill="none"><path d="M9 .113l22.54 8.42v6.199L9 23.232v-6.02l4.572-1.595V7.535L9 5.973V.113zm9.032 8.63v5.634l7.793-2.833-7.793-2.802zM9 25.988h22.54v8.727c0 2.297-.483 4.132-1.449 5.506-.955 1.374-2.377 2.06-4.266 2.06a4.32 4.32 0 01-1.9-.418 5.164 5.164 0 01-1.546-1.143 5.912 5.912 0 01-1.062-1.594c-.43 1.213-1.143 2.19-2.142 2.93-.998.752-2.184 1.127-3.558 1.127-1.342 0-2.506-.338-3.494-1.014-.987-.665-1.755-1.615-2.302-2.85C9.274 38.086 9 36.62 9 34.925v-8.936zm3.945 5.346v2.817c0 1.16.236 2.029.708 2.608.472.58 1.18.87 2.125.87.902 0 1.6-.28 2.093-.837.505-.548.757-1.369.757-2.464v-2.994h-5.683zm9.354 0v2.656c0 .644.107 1.197.322 1.659.215.472.526.831.934 1.078.407.258.896.387 1.465.387.826 0 1.465-.28 1.916-.837.45-.548.676-1.337.676-2.367v-2.576h-5.313zM9 51.145h17.662v-6.006h4.878v17.388h-4.878v-6.005H9v-5.377zm-.483 24.463c0-1.728.295-3.327.886-4.797a11.818 11.818 0 012.495-3.816 11.33 11.33 0 013.735-2.528c1.428-.59 2.974-.886 4.637-.886 1.675 0 3.226.296 4.653.886a11.33 11.33 0 013.735 2.528 11.603 11.603 0 012.48 3.816c.59 1.47.885 3.07.885 4.797 0 1.74-.3 3.338-.901 4.798a11.685 11.685 0 01-2.512 3.816 11.299 11.299 0 01-3.751 2.512c-1.417.6-2.947.901-4.589.901-1.663 0-3.21-.3-4.637-.901a11.126 11.126 0 01-3.735-2.512 11.817 11.817 0 01-2.495-3.816c-.59-1.46-.886-3.059-.886-4.798zm5.023 0c0 .934.156 1.788.467 2.56a5.868 5.868 0 001.353 2.045 6.018 6.018 0 002.125 1.336c.837.322 1.765.483 2.785.483 1.374 0 2.566-.279 3.575-.837a5.77 5.77 0 002.334-2.286c.558-.966.837-2.066.837-3.3a6.67 6.67 0 00-.483-2.56 5.868 5.868 0 00-1.352-2.045 6.339 6.339 0 00-2.126-1.337c-.826-.322-1.754-.483-2.785-.483-1.363 0-2.549.28-3.558.838a6.02 6.02 0 00-2.35 2.286c-.548.977-.822 2.077-.822 3.3zm-5.023 26.693c0-2.329.478-4.384 1.433-6.166a10.323 10.323 0 014.057-4.17c1.75-.998 3.816-1.497 6.199-1.497 1.739 0 3.327.29 4.765.87a11.11 11.11 0 013.752 2.479 11.176 11.176 0 012.431 3.783c.58 1.46.87 3.054.87 4.782 0 1.878-.237 3.456-.709 4.733a11.509 11.509 0 01-2.013 3.462l-4.395-2.673a5.75 5.75 0 001.433-2.254c.322-.88.483-1.851.483-2.914 0-1.052-.156-1.991-.467-2.817a5.813 5.813 0 00-1.304-2.093 5.682 5.682 0 00-2.06-1.305c-.806-.3-1.707-.45-2.706-.45-1.374 0-2.549.268-3.526.805a5.564 5.564 0 00-2.254 2.334c-.515 1.009-.773 2.217-.773 3.623 0 1.009.15 2.007.451 2.994a9.02 9.02 0 001.498 2.834l-4.492 2.447c-.805-1.041-1.455-2.286-1.948-3.735-.484-1.449-.725-3.14-.725-5.072zM9 118.313h17.662v-6.006h4.878v17.389h-4.878v-6.006H9v-5.377zm0 14.655h22.54v15.843h-4.636v-10.498h-4.187v8.807h-4.282v-8.807h-4.75v10.627H9v-15.972zm0 34.302l11.657-9.064 10.883 8.195v6.665l-10.867-8.34L9 174.145v-6.875zm0-13.862h22.54v5.345h-8.356v4.251h-4.878v-4.251H9v-5.345zm-.435 23.278l4.879-1.739c.225.719.477 1.331.756 1.835.29.516.671.94 1.144 1.272.482.333 1.121.591 1.915.773.795.193 1.804.322 3.027.386 1.235.076 2.753.113 4.557.113h6.697v16.986H9v-5.345h17.662v-6.585h-1.578c-2.308 0-4.315-.075-6.021-.226-1.707-.139-3.167-.381-4.38-.724-1.213-.344-2.221-.811-3.027-1.401a6.868 6.868 0 01-1.948-2.206c-.493-.869-.874-1.916-1.143-3.139zm-.048 35.555c0-1.728.295-3.328.886-4.798a11.815 11.815 0 012.495-3.816 11.33 11.33 0 013.735-2.528c1.428-.59 2.974-.885 4.637-.885 1.675 0 3.226.295 4.653.885a11.33 11.33 0 013.735 2.528 11.6 11.6 0 012.48 3.816c.59 1.47.885 3.07.885 4.798 0 1.739-.3 3.338-.901 4.798a11.689 11.689 0 01-2.512 3.815 11.297 11.297 0 01-3.751 2.512c-1.417.601-2.947.902-4.589.902-1.663 0-3.21-.301-4.637-.902a11.123 11.123 0 01-3.735-2.512 11.821 11.821 0 01-2.495-3.815c-.59-1.46-.886-3.059-.886-4.798zm5.023 0c0 .933.156 1.787.467 2.56a5.863 5.863 0 001.353 2.044 6.025 6.025 0 002.125 1.337c.837.322 1.765.483 2.785.483 1.374 0 2.566-.279 3.574-.838a5.765 5.765 0 002.335-2.286c.558-.966.837-2.066.837-3.3 0-.923-.16-1.777-.483-2.56a5.868 5.868 0 00-1.352-2.045 6.335 6.335 0 00-2.126-1.336c-.826-.322-1.754-.483-2.785-.483-1.363 0-2.549.279-3.558.837a6.02 6.02 0 00-2.35 2.286c-.548.977-.822 2.077-.822 3.301zM8.517 251.97c0-2.329.478-4.384 1.433-6.166a10.32 10.32 0 014.057-4.17c1.75-.998 3.816-1.497 6.199-1.497 1.739 0 3.327.289 4.765.869 1.45.59 2.7 1.417 3.752 2.48a11.17 11.17 0 012.431 3.783c.58 1.46.87 3.054.87 4.782 0 1.878-.237 3.456-.709 4.733a11.51 11.51 0 01-2.013 3.462l-4.395-2.673a5.75 5.75 0 001.433-2.254c.322-.88.483-1.851.483-2.914 0-1.052-.156-1.991-.467-2.817a5.805 5.805 0 00-1.304-2.093 5.687 5.687 0 00-2.06-1.305c-.806-.3-1.707-.45-2.706-.45-1.374 0-2.549.268-3.526.805a5.56 5.56 0 00-2.254 2.334c-.515 1.009-.773 2.217-.773 3.623 0 1.009.15 2.007.451 2.994a9.02 9.02 0 001.498 2.834l-4.492 2.447c-.805-1.041-1.455-2.286-1.948-3.735-.484-1.449-.725-3.14-.725-5.072zM9 264.021h22.54v15.843h-4.636v-10.498h-4.187v8.807h-4.282v-8.807h-4.75v10.627H9v-15.972zm0 20.44h22.54v9.032c0 1.685-.295 3.177-.885 4.476-.58 1.299-1.428 2.319-2.544 3.059-1.116.752-2.458 1.127-4.025 1.127-1.589 0-2.936-.343-4.041-1.03-1.106-.687-1.948-1.685-2.528-2.995-.58-1.309-.87-2.898-.87-4.766v-3.558H9v-5.345zm12.123 5.345v3.43c0 1.127.22 2.001.66 2.624.451.633 1.192.95 2.223.95 1.03 0 1.776-.327 2.237-.982.473-.644.709-1.498.709-2.56v-3.462h-5.829zM9 305.624h22.54v8.726c0 2.297-.483 4.133-1.449 5.507-.955 1.374-2.377 2.061-4.266 2.061-.687 0-1.32-.14-1.9-.419a5.164 5.164 0 01-1.546-1.143 5.911 5.911 0 01-1.062-1.594c-.43 1.213-1.143 2.19-2.142 2.93-.998.751-2.184 1.127-3.558 1.127-1.342 0-2.506-.338-3.494-1.014-.987-.666-1.755-1.616-2.302-2.85-.547-1.234-.821-2.699-.821-4.395v-8.936zm3.945 5.345v2.818c0 1.159.236 2.029.708 2.608.472.58 1.18.87 2.125.87.902 0 1.6-.28 2.093-.838.505-.547.757-1.368.757-2.463v-2.995h-5.683zm9.354 0v2.657c0 .644.107 1.197.322 1.658.215.473.526.832.934 1.079.407.258.896.386 1.465.386.826 0 1.465-.279 1.916-.837.45-.547.676-1.336.676-2.367v-2.576h-5.313zM9 326.819h22.54v5.297H17.453l14.087 9.128v5.314H9v-5.297h14.265L9 332.099v-5.28zm-.483 35.495c0-2.329.478-4.385 1.433-6.167a10.323 10.323 0 014.057-4.169c1.75-.999 3.816-1.498 6.199-1.498 1.739 0 3.327.29 4.765.87 1.45.59 2.7 1.416 3.752 2.479a11.175 11.175 0 012.431 3.784c.58 1.459.87 3.053.87 4.781 0 1.879-.237 3.457-.709 4.734a11.516 11.516 0 01-2.013 3.461l-4.395-2.672a5.758 5.758 0 001.433-2.254c.322-.88.483-1.852.483-2.914 0-1.052-.156-1.991-.467-2.818a5.813 5.813 0 00-1.304-2.093 5.671 5.671 0 00-2.06-1.304c-.806-.301-1.707-.451-2.706-.451-1.374 0-2.549.268-3.526.805a5.568 5.568 0 00-2.254 2.335c-.515 1.009-.773 2.216-.773 3.622 0 1.009.15 2.007.451 2.995.312.998.81 1.943 1.498 2.834l-4.492 2.447c-.805-1.041-1.455-2.286-1.948-3.736-.484-1.449-.725-3.139-.725-5.071z" fill="currentColor"/><path stroke="currentColor" stroke-opacity=".14" stroke-width="1.61" d="M31.27 385.565H8.73"/><path d="M1.771 401.199c0-.515.064-1.025.193-1.53a5.305 5.305 0 01.644-1.529l2.56.692a3.903 3.903 0 00-.483 1.079 3.91 3.91 0 00-.16 1.03c0 .794.192 1.412.579 1.852.386.44.976.794 1.77 1.062l1.804.628 16.1-6.247v3.253l-12.719 4.669 12.72 4.556v3.14l-18.29-6.907c-1.246-.473-2.206-.999-2.883-1.578-.687-.569-1.164-1.197-1.433-1.884-.268-.687-.402-1.449-.402-2.286zM9 422.713l22.54 8.871v3.14L9 443.869v-3.414l5.651-2.238v-10.046L9 426.029v-3.316zm8.292 6.311v8.308l10.497-4.251-10.497-4.057zm-8.534 17.667l2.721-1.095c.28 1.106.725 1.911 1.337 2.415.622.505 1.497.827 2.624.966 1.127.14 2.592.209 4.396.209h4.942v12.446H9v-2.963h13.267v-6.681h-2.431c-1.718 0-3.21-.075-4.476-.226-1.256-.139-2.319-.402-3.188-.788a5.475 5.475 0 01-2.142-1.61c-.547-.687-.971-1.578-1.272-2.673zM9 466.74h15.778v2.962H11.351v3.317c0 1.277.236 2.233.708 2.866.483.644 1.208.966 2.174.966.944 0 1.669-.301 2.173-.902.505-.59.757-1.47.757-2.64v-4.073h2.334v4.282c0 1.997-.456 3.564-1.368 4.702-.902 1.148-2.2 1.722-3.896 1.722-1.106 0-2.05-.279-2.834-.837-.773-.558-1.369-1.336-1.787-2.335-.408-.998-.612-2.162-.612-3.493v-6.537zm-.483 24.203c0-1.331.225-2.528.676-3.591a7.346 7.346 0 011.98-2.721c.87-.74 1.933-1.309 3.188-1.706 1.256-.387 2.69-.58 4.3-.58 1.76 0 3.343.129 4.749.387 1.406.257 2.624.676 3.654 1.255a7.615 7.615 0 012.56 2.287c.677.955 1.16 2.125 1.45 3.51l1.593 7.551-2.64.515-1.497-7.342c-.29-1.309-.752-2.335-1.385-3.075a5.417 5.417 0 00-2.367-1.626c-.955-.344-2.071-.569-3.349-.676a7.75 7.75 0 012.4 2.576c.611 1.051.917 2.286.917 3.703 0 1.524-.365 2.86-1.095 4.009a7.6 7.6 0 01-2.898 2.721c-1.202.654-2.533.982-3.993.982a8.761 8.761 0 01-3.188-.58 7.892 7.892 0 01-2.64-1.674 7.955 7.955 0 01-1.771-2.592c-.43-.999-.644-2.11-.644-3.333zm2.673-.081c0 1.009.225 1.911.676 2.705a4.906 4.906 0 001.932 1.868c.826.451 1.803.676 2.93.676 1.138 0 2.12-.225 2.946-.676a4.794 4.794 0 001.916-1.868c.451-.783.677-1.685.677-2.705 0-1.019-.226-1.926-.677-2.721a4.786 4.786 0 00-1.916-1.867c-.826-.451-1.808-.677-2.946-.677-1.127 0-2.104.226-2.93.677a4.897 4.897 0 00-1.932 1.867c-.451.795-.676 1.702-.676 2.721zm-2.673 19.393c0-1.675.349-3.151 1.047-4.428a7.595 7.595 0 012.914-2.995c1.255-.719 2.715-1.078 4.379-1.078 1.202 0 2.318.204 3.349.611a8.122 8.122 0 012.672 1.739 8.106 8.106 0 011.755 2.625c.419 1.009.628 2.103.628 3.284 0 1.277-.225 2.415-.676 3.413a6.58 6.58 0 01-1.9 2.496c-.805.665-1.755 1.143-2.85 1.433-1.084.29-2.264.349-3.542.177v-12.848c-1.051-.032-1.974.182-2.769.644-.783.461-1.395 1.127-1.835 1.996-.44.88-.66 1.922-.66 3.124 0 .88.14 1.739.418 2.576.28.837.693 1.578 1.24 2.222l-2.206 1.255a7.594 7.594 0 01-1.079-1.835c-.29-.698-.51-1.428-.66-2.19a11.467 11.467 0 01-.225-2.221zm10.079-5.41v9.724c1.33-.043 2.366-.456 3.107-1.239.752-.784 1.127-1.906 1.127-3.365 0-1.417-.375-2.587-1.127-3.51-.74-.923-1.776-1.46-3.107-1.61zM2.238 521.361h22.54v2.721h-2.366a7.642 7.642 0 012.044 2.464c.537.998.805 2.254.805 3.767 0 1.567-.37 2.947-1.11 4.138a7.567 7.567 0 01-2.995 2.785c-1.267.677-2.689 1.015-4.267 1.015a9.11 9.11 0 01-3.252-.58 8.103 8.103 0 01-2.673-1.626 7.77 7.77 0 01-1.803-2.528c-.43-.966-.644-2.045-.644-3.236 0-1.331.247-2.496.74-3.494a7.637 7.637 0 011.98-2.479h-9v-2.947zm8.952 8.421c0 1.063.23 2.002.692 2.817a4.964 4.964 0 001.98 1.932c.859.473 1.868.709 3.027.709 1.17 0 2.179-.236 3.027-.709a4.831 4.831 0 001.98-1.932c.462-.815.693-1.754.693-2.817 0-1.063-.231-2.007-.693-2.834a4.977 4.977 0 00-1.98-1.932c-.848-.472-1.857-.708-3.027-.708-1.16 0-2.168.236-3.027.708a5.119 5.119 0 00-1.98 1.932c-.462.827-.692 1.771-.692 2.834zM9 545.613h13.267v-5.409h2.511v13.797h-2.511v-5.425H9v-2.963zm-.483 18.468c0-1.589.37-2.995 1.11-4.218a7.835 7.835 0 012.996-2.866c1.266-.687 2.688-1.031 4.266-1.031 1.18 0 2.281.199 3.3.596a7.986 7.986 0 012.657 1.674 7.517 7.517 0 011.771 2.56c.43.999.644 2.093.644 3.285 0 1.588-.332 2.909-.998 3.96-.665 1.052-1.513 1.873-2.544 2.464l-.644-.435h3.703v2.705H9v-2.705h3.703l-.628.435c-1.03-.591-1.884-1.412-2.56-2.464-.665-1.051-.998-2.372-.998-3.96zm2.673.322c0 1.052.23 1.985.692 2.801a4.998 4.998 0 001.98 1.916c.859.472 1.868.709 3.027.709 1.17 0 2.179-.237 3.027-.709a4.862 4.862 0 001.98-1.916c.462-.816.693-1.749.693-2.801s-.231-1.986-.693-2.802c-.461-.815-1.121-1.459-1.98-1.932-.848-.472-1.857-.708-3.027-.708-1.16 0-2.168.236-3.027.708a5.126 5.126 0 00-1.98 1.932c-.462.816-.692 1.75-.692 2.802z" fill="currentColor"/></svg>