<svg width="102" height="102" viewBox="0 0 102 102" fill="none"><path fill-rule="evenodd" clip-rule="evenodd" d="M51 7.832a43.166 43.166 0 100 86.333 43.166 43.166 0 000-86.333zM.833 50.999C.833 23.293 23.294.832 51 .832c27.706 0 50.167 22.46 50.167 50.167 0 27.706-22.46 50.166-50.167 50.166-27.706 0-50.167-22.46-50.167-50.166zm25.915-3.5h11.9a12.787 12.787 0 013.15-5.442l-5.955-10.313a24.477 24.477 0 00-9.096 15.755zm15.157-19.255l5.95 10.313a12.86 12.86 0 016.29 0l5.95-10.313A24.435 24.435 0 0051 26.499c-3.215 0-6.281.62-9.095 1.745zm24.248 3.5l-5.955 10.313a12.782 12.782 0 013.15 5.442h11.9a24.477 24.477 0 00-9.1-15.75m9.096 22.754h-11.9a12.787 12.787 0 01-3.15 5.442l5.954 10.313a24.476 24.476 0 009.096-15.755zM60.085 73.758l-5.95-10.313a12.852 12.852 0 01-6.29 0l-5.95 10.313a24.423 24.423 0 009.095 1.745c3.215 0 6.286-.62 9.1-1.745m-24.253-3.5l5.955-10.313a12.825 12.825 0 01-3.145-5.442h-11.9a24.476 24.476 0 009.09 15.75M48.13 56.081l-.051-.028-.047-.028a5.833 5.833 0 01-.023-10.038l.07-.038.07-.046a5.805 5.805 0 015.68 0l.083.046.08.047a5.833 5.833 0 01-.047 10.033l-.033.024a5.806 5.806 0 01-5.786.028M19.5 50.999a31.5 31.5 0 1163 0 31.5 31.5 0 01-63 0z" fill="currentColor"/></svg>