<svg width="54" height="54" viewBox="0 0 54 54" fill="none"><path d="M39.075 25.8l3.825-.825c1.05-.225 2.025.6 2.025 1.65V28.2c0 1.275-.975 1.575-2.175 1.575h-4.2c-.825 0-1.65-.15-1.65-1.05V28.5c0-1.35.9-2.475 2.175-2.7zm4.425 2.4v-1.65c0-.15-.15-.3-.3-.225l-3.825.825c-.525.15-.9.6-.975 1.125 2.625 0 4.875 0 5.1-.075z" fill="currentColor"/><path d="M5.025 17.773l5.4-2.55c1.8-.825 3.75-1.125 5.625-.75l.825-1.65c.6-1.5 2.025-2.55 3.675-2.55H38.1c1.65 0 3.075.975 3.675 2.475l2.925 6.075a3.664 3.664 0 013-1.575h1.275c1.125 0 2.025.9 2.025 2.025v.825c0 1.125-.9 2.025-2.025 2.025h-1.95c.825 1.05 1.2 2.4 1.2 3.75v4.5c0 1.725-.6 3.375-1.8 4.8v3.375c0 1.5-1.2 2.7-2.7 2.7H40.95c-1.5 0-2.7-1.2-2.7-2.7v-1.35h-15c-3.3 4.5-8.475 6.45-8.55 6.45-.15.075-.3.075-.525 0C14.1 43.573 3 39.523 3 29.398v-8.4c0-1.35.825-2.625 2.025-3.225zm35.4-4.425c-.375-.975-1.275-1.575-2.325-1.575H20.55c-1.05 0-1.95.6-2.4 1.65l-.675 1.425c.3.075.6.225.9.375l5.4 2.55c1.2.6 2.025 1.8 2.025 3.15h18.375c-.3-.45 0 .3-3.75-7.575zm9.075 6.75v-.825c0-.3-.225-.525-.525-.525H47.7c-1.5 0-2.025 1.35-2.175 1.575.075.15.15.225.3.375h3.15c.3-.075.525-.3.525-.6zm-9.75 18.375c0 .675.525 1.2 1.2 1.2h2.85c.675.075 1.2-.525 1.2-1.2v-2.175c-.9.525-1.95.825-3 .825h-2.25v1.35zm2.325-2.775c2.7 0 4.8-2.625 4.8-5.4v-4.5c0-1.275-.525-2.475-1.425-3.45H25.8v6.6h8.25c.375 0 .75.3.75.75s-.3.75-.75.75h-8.325c-.075.525-.075.975-.225 1.425h8.55c.375 0 .75.3.75.75s-.3.75-.75.75H25.2c-.3.825-.6 1.65-1.05 2.325h17.925zM4.5 29.398c0 8.325 8.4 12.15 9.9 12.75 5.4-2.175 9.9-6.825 9.9-12.75v-8.4c0-.825-.45-1.5-1.2-1.875l-5.4-2.55c-2.175-1.05-4.575-1.05-6.75 0l-5.4 2.55c-.675.375-1.2 1.05-1.2 1.875v8.4h.15z" fill="currentColor"/><path d="M7.05 20.848L12 18.523c1.5-.75 3.375-.75 4.875 0l4.875 2.325c.225.15.45.375.45.675v7.875c0 5.925-5.175 9.15-7.425 10.275a1.04 1.04 0 01-.675 0c-2.25-1.125-7.425-4.35-7.425-10.275v-7.875c0-.3.15-.525.375-.675zm1.05 8.55c0 4.8 4.2 7.65 6.3 8.775 2.475-1.35 6.3-4.05 6.3-8.775v-7.425l-4.5-2.175a4.311 4.311 0 00-3.6 0l-4.5 2.175v7.425z" fill="currentColor"/><path d="M17.325 29.173c.3-.225.75-.15 1.05.15.3.3.15.75-.15 1.05l-2.85 2.175c-.3.225-.75.15-1.05-.15l-4.2-5.475c-.225-.3-.15-.75.15-1.05.3-.225.75-.15 1.05.15l3.75 4.875 2.25-1.725z" fill="currentColor"/></svg>