<svg width="54" height="54" viewBox="0 0 54 54" fill="none"><path d="M47.64 24.688l-1.243-4.972a.752.752 0 00.595-.735v-.801a3.16 3.16 0 00-3.157-3.157h-5.662V13.37c0-.857-.696-1.554-1.553-1.554H7.76c-.857 0-1.553.697-1.553 1.554v13.628a.751.751 0 101.503 0V13.37a.05.05 0 01.05-.05h28.86a.05.05 0 01.05.05v13.628a.752.752 0 101.503 0v-.852h8.87a2.46 2.46 0 012.336 1.704h-2.337a.752.752 0 00-.752.752v1.603a2.358 2.358 0 002.355 2.355h.852v3.307h-1.965a4.767 4.767 0 00-4.499-3.207 4.767 4.767 0 00-4.498 3.207h-.362v-5.662a.752.752 0 00-1.503 0v5.662H21.077a4.767 4.767 0 00-4.499-3.207 4.767 4.767 0 00-4.498 3.207H7.76a.05.05 0 01-.05-.05v-1.654h3.257a.751.751 0 100-1.503H3.752a.751.751 0 100 1.503h2.455v1.653c0 .857.696 1.554 1.553 1.554h4.06l-.002.05a4.765 4.765 0 004.76 4.76 4.765 4.765 0 004.76-4.76l-.001-.05h16.938l-.002.05a4.765 4.765 0 004.76 4.76 4.765 4.765 0 004.76-4.76l-.001-.05h2.456a.752.752 0 00.752-.752v-8.017a3.965 3.965 0 00-3.36-3.913zm-9.467-8.162h5.662c.912 0 1.654.742 1.654 1.654v.05h-7.316v-1.704zm0 8.117v-4.91h6.679l1.227 4.91h-7.906zM16.578 40.677a3.26 3.26 0 01-3.256-3.257 3.26 3.26 0 013.256-3.257 3.26 3.26 0 013.257 3.257 3.26 3.26 0 01-3.257 3.257zm26.456 0a3.26 3.26 0 01-3.257-3.257 3.26 3.26 0 013.257-3.257 3.26 3.26 0 013.256 3.257 3.26 3.26 0 01-3.256 3.257zm6.463-9.62h-.852a.853.853 0 01-.852-.852v-.852h1.704v1.704z" fill="currentColor"/><path d="M16.578 35.866c-.856 0-1.553.697-1.553 1.554 0 .856.697 1.553 1.553 1.553.857 0 1.554-.697 1.554-1.553 0-.857-.697-1.554-1.554-1.554zm26.456 0a1.555 1.555 0 000 3.107c.856 0 1.553-.697 1.553-1.553 0-.857-.697-1.554-1.553-1.554zm-8.819-3.206H22.992a.752.752 0 000 1.503h11.223a.752.752 0 100-1.503zm-19.24-3.207h-9.62a.751.751 0 000 1.503h9.62a.752.752 0 000-1.503zm14.16-10.202a.751.751 0 00-1.063 0l-6.683 6.684-3.477-3.477a.753.753 0 00-1.063 1.063l4.008 4.008a.749.749 0 001.063 0l7.215-7.215a.752.752 0 000-1.063z" fill="currentColor"/></svg>