<svg width="103" height="31" viewBox="0 0 103 31" fill="none"><path d="M37.73 14.564a3.897 3.897 0 01-1.71-.371 3.25 3.25 0 01-1.23-1.057l1.364-1.158c.194.278.44.499.738.664.306.165.607.247.906.247.29 0 .521-.06.693-.18.179-.127.268-.288.268-.483a.683.683 0 00-.257-.529c-.171-.15-.455-.292-.85-.427l-.559-.191c-1.334-.45-2.001-1.218-2.001-2.305 0-.756.253-1.356.76-1.798.515-.442 1.174-.663 1.98-.663 1.028 0 1.881.367 2.56 1.101l-1.163 1.237c-.365-.442-.824-.663-1.375-.663-.261 0-.489.052-.682.157-.187.105-.28.255-.28.45 0 .202.09.367.268.494.18.12.5.263.962.427l.559.203c1.267.457 1.897 1.251 1.89 2.383 0 .727-.269 1.319-.805 1.776-.53.457-1.208.686-2.035.686zm4.073-.134V6.45h1.778v7.98h-1.778zm3.45-7.98h1.621l2.471 3.44 2.494-3.44h1.62v7.98h-1.788V9.519l-2.315 3.215-2.325-3.226v4.924h-1.778V6.449zm11.894 5.674a2.2 2.2 0 001.644.709c.64 0 1.185-.236 1.632-.709a2.368 2.368 0 00.671-1.686c0-.652-.224-1.214-.67-1.686a2.164 2.164 0 00-1.633-.708 2.2 2.2 0 00-1.644.708 2.368 2.368 0 00-.67 1.686c0 .652.223 1.214.67 1.686zm4.54 1.226c-.798.81-1.763 1.214-2.896 1.214s-2.102-.401-2.907-1.203c-.798-.81-1.197-1.784-1.197-2.923s.4-2.11 1.197-2.911c.805-.81 1.774-1.215 2.907-1.215s2.098.405 2.896 1.215c.805.809 1.207 1.78 1.207 2.911 0 1.132-.402 2.102-1.207 2.912zm9.613 1.08h-1.532l-3.87-4.934v4.935h-1.777V6.449h1.532l3.857 4.935V6.45h1.79v7.982zm3.689-2.306a2.2 2.2 0 001.643.709c.641 0 1.185-.236 1.633-.709.447-.472.67-1.034.67-1.686 0-.652-.223-1.214-.67-1.686a2.164 2.164 0 00-1.633-.708 2.2 2.2 0 00-1.643.708 2.368 2.368 0 00-.671 1.686c0 .652.223 1.214.67 1.686zm4.54 1.226c-.798.81-1.764 1.214-2.897 1.214-1.133 0-2.102-.401-2.907-1.203-.797-.81-1.196-1.784-1.196-2.923s.399-2.11 1.196-2.911c.805-.81 1.774-1.215 2.907-1.215s2.099.405 2.896 1.215c.805.809 1.208 1.78 1.208 2.911 0 1.132-.403 2.102-1.208 2.912zm4.511 1.08l-3.254-7.98h1.934l2.113 5.317 2.102-5.318h1.957l-3.254 7.982H84.04zm-48.411 3.26h.783l3.063 4.103 3.064-4.104h.782v7.982h-.85v-6.509l-2.996 4.013-2.996-4.013v6.51h-.85v-7.983zm8.886 7.981l3.533-7.982h.682l3.545 7.982h-.895l-1.107-2.484h-3.79l-1.096 2.484h-.872zm3.858-6.779L46.83 22.39h3.097l-1.554-3.497zm5.097 6.779V17.69h2.594c.73 0 1.305.195 1.722.585.417.382.626.903.626 1.563 0 .614-.186 1.113-.559 1.495-.365.374-.872.588-1.52.64l3.141 3.7h-1.106l-3.142-3.71h-.906v3.71h-.85zm.85-4.497h1.644c1.058 0 1.587-.445 1.587-1.337 0-.9-.529-1.35-1.587-1.35H54.32v2.687zm11.471 4.497l-4.461-3.856v3.856h-.839V17.69h.839v3.497l3.656-3.497h1.152l-3.947 3.789 4.863 4.193h-1.263zm2.125 0V17.69h4.528v.81h-3.678v2.664h3.007v.81h-3.007v2.889h3.678v.81h-4.528zm7.834 0V18.5h-2.57v-.81h5.981v.81h-2.572v7.172h-.838zm4.7 0V17.69h.85v7.982h-.85zm9.733 0h-.75L84.37 19.14v6.531h-.85V17.69h.75l5.064 6.532V17.69h.85v7.982zm5.914.135c-1.245 0-2.27-.393-3.075-1.18-.797-.787-1.196-1.769-1.196-2.946 0-1.169.395-2.147 1.185-2.934.797-.794 1.781-1.191 2.952-1.191 1.192 0 2.161.352 2.907 1.056l-.548.63c-.641-.585-1.428-.877-2.36-.877-.939 0-1.721.319-2.347.956-.619.637-.928 1.424-.928 2.36 0 .952.313 1.743.939 2.372.633.63 1.457.945 2.47.945.962 0 1.712-.218 2.248-.652v-2.361H95.93v-.81h3.254v3.52c-.73.741-1.76 1.112-3.086 1.112zM90.868 14.17c-.23.233-.51.349-.838.349a1.19 1.19 0 01-1.196-1.203c0-.33.115-.61.346-.843.239-.24.522-.36.85-.36.328 0 .607.12.838.36.239.232.358.513.358.843 0 .33-.119.615-.358.854zM.212 17.164c0-.098 0-.196.017-.294a1.93 1.93 0 011.275-1.517L19.914 9.3a1.594 1.594 0 011.667.407c.441.457.588 1.077.376 1.665L15.58 29.629a1.886 1.886 0 01-1.537 1.256 1.872 1.872 0 01-1.815-.783.907.907 0 01-.147-.277L9.025 22.45a.27.27 0 00-.164-.163L1.26 18.844a3.745 3.745 0 01-.262-.147 1.908 1.908 0 01-.785-1.533zm20.535-6.33a.287.287 0 00-.098-.213.322.322 0 00-.327-.082L1.929 16.593a.556.556 0 00-.392.473.58.58 0 00.229.57s.016 0 .032.017l7.586 3.41c.376.163.67.473.834.865l3.057 7.375.017.032c.13.18.343.278.556.245a.556.556 0 00.474-.391l6.376-18.258c.033-.032.049-.065.049-.098zM13.34 3.54c0-.164.066-.327.197-.457a.652.652 0 01.932 0l3.008 3.002a.65.65 0 010 .93.652.652 0 01-.932 0l-3.008-3.002a.653.653 0 01-.196-.474zm10.579 3.001a.64.64 0 01.196-.456l3.008-3.002a.652.652 0 01.932 0 .65.65 0 010 .93l-3.008 3.002a.652.652 0 01-.932 0 .71.71 0 01-.196-.474zm-3.793-1.564V.735a.655.655 0 011.308 0v4.242a.655.655 0 01-.654.652.655.655 0 01-.654-.652zm3.744 9.07c0-.163.065-.326.196-.457a.652.652 0 01.932 0l3.008 3.002a.65.65 0 010 .93.652.652 0 01-.932 0l-3.008-3.002a.68.68 0 01-.196-.473zm1.57-3.769c0-.36.294-.653.653-.653h4.251c.36 0 .654.294.654.653a.655.655 0 01-.654.652h-4.25a.655.655 0 01-.655-.652z" fill="currentColor"/><path d="M20.781 9.4L8.724 21.433l.924.923 12.058-12.033-.925-.923z" fill="currentColor"/></svg>