<svg width="241" height="50" viewBox="0 0 241 50" fill="none"><path d="M.07 20L5.3 6h3.85l5.28 14h-3.74l-.99-2.84H4.68L3.71 20H.07zm5.36-5.61h3.5L7.17 9.55l-1.74 4.84zM16.142 20V6h5.42c1.427 0 2.567.3 3.42.9.854.593 1.28 1.477 1.28 2.65 0 .427-.087.82-.26 1.18-.173.36-.41.68-.71.96a3.67 3.67 0 01-.99.66c.753.267 1.36.71 1.82 1.33.467.62.7 1.357.7 2.21 0 .833-.21 1.557-.63 2.17-.413.613-1.003 1.09-1.77 1.43-.767.34-1.677.51-2.73.51h-5.55zm3.32-2.45h1.75c.72 0 1.26-.147 1.62-.44.36-.293.54-.733.54-1.32 0-.56-.173-.993-.52-1.3-.34-.313-.85-.47-1.53-.47h-1.86v3.53zm0-5.81h1.65c.4 0 .744-.067 1.03-.2.294-.133.517-.327.67-.58.16-.253.24-.557.24-.91 0-.513-.173-.91-.52-1.19-.34-.28-.83-.42-1.47-.42h-1.6v3.3zM31.766 20V9.03h-3.73V6h10.8v3.03h-3.73V20h-3.34zm15.195.3c-1.073 0-2.067-.183-2.98-.55a7.34 7.34 0 01-2.37-1.55 7.038 7.038 0 01-1.57-2.32 7.463 7.463 0 01-.55-2.88c0-1.04.183-2.003.55-2.89a7.038 7.038 0 011.57-2.32 7.208 7.208 0 012.37-1.54c.913-.367 1.907-.55 2.98-.55 1.08 0 2.073.187 2.98.56a7.257 7.257 0 012.37 1.56 7.016 7.016 0 011.56 2.33c.373.88.56 1.83.56 2.85a7.345 7.345 0 01-.56 2.88 6.908 6.908 0 01-1.56 2.32 7.338 7.338 0 01-2.37 1.55c-.907.367-1.9.55-2.98.55zm0-3.12c.58 0 1.11-.097 1.59-.29a3.643 3.643 0 002.1-2.16c.2-.52.3-1.097.3-1.73 0-.853-.173-1.593-.52-2.22a3.583 3.583 0 00-1.42-1.45c-.6-.347-1.283-.52-2.05-.52-.573 0-1.103.1-1.59.3-.487.193-.91.473-1.27.84-.353.367-.63.807-.83 1.32-.2.513-.3 1.09-.3 1.73 0 .847.173 1.583.52 2.21a3.74 3.74 0 001.42 1.46c.607.34 1.29.51 2.05.51zm16.58 3.12c-1.447 0-2.724-.297-3.83-.89a6.41 6.41 0 01-2.59-2.52c-.62-1.087-.93-2.37-.93-3.85 0-1.08.18-2.067.54-2.96.366-.9.88-1.677 1.54-2.33a6.94 6.94 0 012.35-1.51c.906-.36 1.896-.54 2.97-.54 1.166 0 2.146.147 2.94.44.792.293 1.51.71 2.15 1.25l-1.66 2.73a3.574 3.574 0 00-1.4-.89c-.547-.2-1.15-.3-1.81-.3-.654 0-1.237.097-1.75.29a3.61 3.61 0 00-1.3.81c-.354.353-.624.78-.81 1.28-.188.5-.28 1.06-.28 1.68 0 .853.166 1.583.5 2.19.34.607.822 1.073 1.45 1.4.626.32 1.376.48 2.25.48.626 0 1.246-.093 1.86-.28a5.605 5.605 0 001.76-.93l1.52 2.79c-.647.5-1.42.903-2.32 1.21-.9.3-1.95.45-3.15.45zm9.944-.3V9.03h-3.73V6h10.8v3.03h-3.73V20h-3.34zm9.103 0V6h9.84v2.88h-6.52v2.6h5.47v2.66h-5.47v2.95h6.6V20h-9.92zm21.305 0l-5.63-7.24 5.09-6.76h4.14l-5.18 6.75 5.85 7.25h-4.27zm-8.61 0V6h3.32v5.19h2.64v3.03h-2.64V20h-3.32zm14.458.27l-1.08-3.03c.446-.14.826-.297 1.14-.47.32-.18.583-.417.79-.71.206-.3.366-.697.48-1.19.12-.493.2-1.12.24-1.88a48.4 48.4 0 00.07-2.83V6h10.55v14h-3.32V9.03h-4.09v.98c0 1.433-.047 2.68-.14 3.74-.087 1.06-.237 1.967-.45 2.72-.214.753-.504 1.38-.87 1.88-.367.5-.824.903-1.37 1.21-.54.307-1.19.543-1.95.71zm22.083.03c-1.073 0-2.066-.183-2.98-.55a7.353 7.353 0 01-2.37-1.55 7.051 7.051 0 01-1.57-2.32 7.475 7.475 0 01-.55-2.88 7.5 7.5 0 01.55-2.89 7.052 7.052 0 011.57-2.32 7.22 7.22 0 012.37-1.54c.914-.367 1.907-.55 2.98-.55 1.08 0 2.074.187 2.98.56a7.25 7.25 0 012.37 1.56 6.998 6.998 0 011.56 2.33c.374.88.56 1.83.56 2.85a7.334 7.334 0 01-.56 2.88 6.89 6.89 0 01-1.56 2.32 7.332 7.332 0 01-2.37 1.55c-.906.367-1.9.55-2.98.55zm0-3.12c.58 0 1.11-.097 1.59-.29a3.64 3.64 0 002.1-2.16c.2-.52.3-1.097.3-1.73 0-.853-.173-1.593-.52-2.22a3.581 3.581 0 00-1.42-1.45c-.6-.347-1.283-.52-2.05-.52-.573 0-1.103.1-1.59.3a3.65 3.65 0 00-1.27.84c-.353.367-.63.807-.83 1.32-.2.513-.3 1.09-.3 1.73 0 .847.174 1.583.52 2.21.347.627.82 1.113 1.42 1.46.607.34 1.29.51 2.05.51zm25.306 3.12c-1.447 0-2.723-.297-3.83-.89a6.409 6.409 0 01-2.59-2.52c-.62-1.087-.93-2.37-.93-3.85 0-1.08.18-2.067.54-2.96.367-.9.88-1.677 1.54-2.33a6.945 6.945 0 012.35-1.51c.907-.36 1.897-.54 2.97-.54 1.167 0 2.147.147 2.94.44a7.16 7.16 0 012.15 1.25l-1.66 2.73a3.573 3.573 0 00-1.4-.89c-.547-.2-1.15-.3-1.81-.3-.653 0-1.237.097-1.75.29-.507.187-.94.457-1.3.81-.353.353-.623.78-.81 1.28-.187.5-.28 1.06-.28 1.68 0 .853.167 1.583.5 2.19.34.607.823 1.073 1.45 1.4.627.32 1.377.48 2.25.48.627 0 1.247-.093 1.86-.28a5.6 5.6 0 001.76-.93l1.52 2.79c-.647.5-1.42.903-2.32 1.21-.9.3-1.95.45-3.15.45zm7.485-.3V6h9.84v2.88h-6.52v2.6h5.47v2.66h-5.47v2.95h6.6V20h-9.92zm12.695 0V6h5.61c1.047 0 1.973.183 2.78.55.807.36 1.44.887 1.9 1.58.467.693.7 1.527.7 2.5 0 .987-.213 1.823-.64 2.51-.427.687-1.047 1.21-1.86 1.57-.813.36-1.8.54-2.96.54h-2.21V20h-3.32zm3.32-7.53h2.13c.7 0 1.243-.137 1.63-.41.393-.28.59-.74.59-1.38 0-.64-.203-1.103-.61-1.39-.4-.293-.93-.44-1.59-.44h-2.15v3.62zm9.825 7.53V6h5.42c1.426 0 2.566.3 3.42.9.853.593 1.28 1.477 1.28 2.65 0 .427-.087.82-.26 1.18-.174.36-.41.68-.71.96a3.693 3.693 0 01-.99.66c.753.267 1.36.71 1.82 1.33.466.62.7 1.357.7 2.21 0 .833-.21 1.557-.63 2.17-.414.613-1.004 1.09-1.77 1.43-.767.34-1.677.51-2.73.51h-5.55zm3.32-2.45h1.75c.72 0 1.26-.147 1.62-.44.36-.293.54-.733.54-1.32 0-.56-.174-.993-.52-1.3-.34-.313-.85-.47-1.53-.47h-1.86v3.53zm0-5.81h1.65c.4 0 .743-.067 1.03-.2.293-.133.516-.327.67-.58.16-.253.24-.557.24-.91 0-.513-.174-.91-.52-1.19-.34-.28-.83-.42-1.47-.42h-1.6v3.3zm9.844 8.26V6h3.29v8.75l5.67-8.75h3.3v14h-3.29v-8.86l-5.69 8.86h-3.28zm22.046.3c-1.447 0-2.723-.297-3.83-.89a6.409 6.409 0 01-2.59-2.52c-.62-1.087-.93-2.37-.93-3.85 0-1.08.18-2.067.54-2.96.367-.9.88-1.677 1.54-2.33a6.945 6.945 0 012.35-1.51c.907-.36 1.897-.54 2.97-.54 1.167 0 2.147.147 2.94.44a7.16 7.16 0 012.15 1.25l-1.66 2.73a3.573 3.573 0 00-1.4-.89c-.547-.2-1.15-.3-1.81-.3-.653 0-1.237.097-1.75.29-.507.187-.94.457-1.3.81-.353.353-.623.78-.81 1.28-.187.5-.28 1.06-.28 1.68 0 .853.167 1.583.5 2.19.34.607.823 1.073 1.45 1.4.627.32 1.377.48 2.25.48.627 0 1.247-.093 1.86-.28a5.6 5.6 0 001.76-.93l1.52 2.79c-.647.5-1.42.903-2.32 1.21-.9.3-1.95.45-3.15.45z" fill="currentColor"/><path stroke="currentColor" stroke-opacity=".14" d="M240.5 5.5v14"/><path d="M2.21 49.49c-.32 0-.637-.04-.95-.12a3.295 3.295 0 01-.95-.4l.43-1.59c.207.133.43.233.67.3.24.067.453.1.64.1.493 0 .877-.12 1.15-.36.273-.24.493-.607.66-1.1l.39-1.12-3.88-10h2.02l2.9 7.9 2.83-7.9h1.95L5.78 46.56c-.293.773-.62 1.37-.98 1.79-.353.427-.743.723-1.17.89-.427.167-.9.25-1.42.25zM15.573 45l5.51-14h1.95l5.68 14h-2.12l-1.39-3.51h-6.24L17.633 45h-2.06zm3.92-5.15h5.16l-2.64-6.52-2.52 6.52zm10.973 5.3l-.68-1.69c.686-.173 1.186-.45 1.5-.83.313-.387.513-.93.6-1.63.086-.7.13-1.61.13-2.73V35.2h7.73V45h-1.84v-8.24h-4.15v1.51c0 1.067-.047 1.993-.14 2.78-.087.78-.25 1.44-.49 1.98-.234.54-.567.983-1 1.33-.427.34-.98.603-1.66.79zM42.917 45v-9.8h1.84v8.34h2.06c.794 0 1.387-.147 1.78-.44.4-.3.6-.75.6-1.35 0-.587-.187-1.037-.56-1.35-.366-.313-.913-.47-1.64-.47h-2.53v-1.45h2.66c1.24 0 2.214.283 2.92.85.713.56 1.07 1.367 1.07 2.42 0 .687-.173 1.273-.52 1.76-.346.48-.83.85-1.45 1.11-.62.253-1.343.38-2.17.38h-4.06zm15.033.3c-.827 0-1.57-.14-2.23-.42a4.556 4.556 0 01-1.69-1.23c-.46-.54-.814-1.2-1.06-1.98-.24-.78-.36-1.67-.36-2.67 0-1.093.08-2.077.24-2.95.16-.873.42-1.63.78-2.27a4.729 4.729 0 011.42-1.59c.593-.42 1.32-.72 2.18-.9l4.69-.99.32 1.64-4.56.93c-.814.18-1.45.467-1.91.86a3.37 3.37 0 00-1.01 1.47c-.214.593-.354 1.287-.42 2.08a4.82 4.82 0 011.6-1.49c.653-.38 1.42-.57 2.3-.57.946 0 1.776.227 2.49.68a4.718 4.718 0 011.69 1.8c.406.747.61 1.573.61 2.48 0 .7-.12 1.36-.36 1.98a4.906 4.906 0 01-1.04 1.64c-.454.467-.99.833-1.61 1.1-.62.267-1.31.4-2.07.4zm-.05-1.66c.626 0 1.186-.14 1.68-.42.493-.287.88-.687 1.16-1.2.28-.513.42-1.12.42-1.82 0-.707-.14-1.317-.42-1.83a2.975 2.975 0 00-1.16-1.19c-.487-.28-1.047-.42-1.68-.42-.634 0-1.197.14-1.69.42-.494.28-.88.677-1.16 1.19-.28.513-.42 1.123-.42 1.83 0 .7.14 1.307.42 1.82.28.513.666.913 1.16 1.2.493.28 1.056.42 1.69.42zm12.044 1.66c-1.04 0-1.956-.217-2.75-.65a4.717 4.717 0 01-1.86-1.81c-.446-.78-.67-1.687-.67-2.72 0-.747.127-1.44.38-2.08.26-.64.62-1.193 1.08-1.66a5.034 5.034 0 011.63-1.09 5.27 5.27 0 012.04-.39c.794 0 1.5.14 2.12.42a4.08 4.08 0 011.55 1.18c.414.5.71 1.09.89 1.77.18.673.217 1.407.11 2.2h-7.98c-.02.653.114 1.227.4 1.72.287.487.7.867 1.24 1.14.547.273 1.194.41 1.94.41.547 0 1.08-.087 1.6-.26.52-.173.98-.43 1.38-.77l.78 1.37c-.32.26-.7.483-1.14.67a7.13 7.13 0 01-1.36.41 7.13 7.13 0 01-1.38.14zm-3.36-6.26h6.04c-.026-.827-.283-1.47-.77-1.93-.486-.467-1.183-.7-2.09-.7-.88 0-1.606.233-2.18.7-.573.46-.906 1.103-1 1.93zm10.26 10.16v-14h1.69v1.47c.407-.52.917-.943 1.53-1.27.62-.333 1.4-.5 2.34-.5.973 0 1.83.23 2.57.69a4.7 4.7 0 011.73 1.86c.42.787.63 1.67.63 2.65 0 .713-.12 1.387-.36 2.02a5.025 5.025 0 01-1.01 1.66 4.82 4.82 0 01-1.57 1.12c-.6.267-1.27.4-2.01.4-.827 0-1.55-.153-2.17-.46a4.743 4.743 0 01-1.54-1.23v5.59h-1.83zm5.23-5.56c.66 0 1.243-.143 1.75-.43a3.088 3.088 0 001.2-1.23c.293-.533.44-1.16.44-1.88 0-.727-.147-1.353-.44-1.88a3.006 3.006 0 00-1.2-1.23c-.507-.287-1.09-.43-1.75-.43-.66 0-1.247.143-1.76.43a3.09 3.09 0 00-1.2 1.23c-.293.527-.44 1.153-.44 1.88 0 .72.147 1.347.44 1.88.293.527.693.937 1.2 1.23.513.287 1.1.43 1.76.43zM91.907 45v-8.24h-3.36V35.2h8.57v1.56h-3.37V45h-1.84zm11.47.3c-.986 0-1.86-.23-2.62-.69a4.87 4.87 0 01-1.78-1.86c-.427-.787-.64-1.67-.64-2.65 0-.733.123-1.417.37-2.05a4.962 4.962 0 011.04-1.65c.447-.473.977-.84 1.59-1.1.62-.267 1.3-.4 2.04-.4.987 0 1.807.207 2.46.62a4.49 4.49 0 011.53 1.58l-.27.4v-2.3h1.68V45h-1.68v-2.3l.27.39a4.574 4.574 0 01-1.53 1.59c-.653.413-1.473.62-2.46.62zm.2-1.66c.654 0 1.234-.143 1.74-.43a3.1 3.1 0 001.19-1.23c.294-.533.44-1.16.44-1.88 0-.727-.146-1.353-.44-1.88a3.018 3.018 0 00-1.19-1.23c-.506-.287-1.086-.43-1.74-.43-.653 0-1.233.143-1.74.43a3.099 3.099 0 00-1.2 1.23c-.293.527-.44 1.153-.44 1.88 0 .72.147 1.347.44 1.88.294.527.694.937 1.2 1.23.507.287 1.087.43 1.74.43z" fill="currentColor"/></svg>