<svg width="32" height="32" viewBox="0 0 32 32" fill="none"><path d="M13 17h5.004v-4H7.542l1.516-3.395c.159-.368.52-.606.92-.606h6.17a7.707 7.707 0 01.004-3H9.978a3.996 3.996 0 00-3.676 2.424l-2.168 5.06C2.871 14.156 2 15.471 2 17v2c0 1.474.81 2.75 2 3.444V26c0 1.103.897 2 2 2h3c1.103 0 2-.897 2-2v-3h7.004v-4H13a1 1 0 110-2zm-5.5 3.5a2.5 2.5 0 110-5 2.5 2.5 0 010 5zM29.922 6.475c-.413-2.367-2.399-4.06-3.537-4.405-.192-.058-.381.094-.381.294v5.017a.998.998 0 01-.553.894l-1 .5a.998.998 0 01-.894 0l-1-.5a1 1 0 01-.553-.894V2.365c0-.2-.19-.353-.383-.294-1.139.353-3.124 2.072-3.534 4.42-.352 2.015.404 3.992 1.597 5.186.196.196.319.45.319.726V26a3.998 3.998 0 107.996 0l.003-13.592c0-.28.127-.538.325-.737 1.201-1.2 1.946-3.186 1.595-5.195zM24.009 27.5a1.5 1.5 0 110-3 1.5 1.5 0 010 3z" fill="currentColor"/></svg>