<svg width="32" height="32" viewBox="0 0 32 32" fill="none"><path d="M10.333 3.332a1 1 0 00-2 0v2.107c-1.92.153-3.178.529-4.104 1.456-.926.925-1.302 2.185-1.457 4.104h26.456c-.155-1.92-.53-3.179-1.457-4.104-.926-.927-2.186-1.303-4.104-1.458V3.332a1 1 0 10-2 0v2.017c-.887-.017-1.882-.017-3-.017h-5.334c-1.118 0-2.113 0-3 .017V3.332z" fill="currentColor"/><path fill-rule="evenodd" clip-rule="evenodd" d="M2.667 16c0-1.119 0-2.113.017-3h26.632c.017.887.017 1.881.017 3v2.667c0 5.028 0 7.542-1.563 9.104-1.56 1.562-4.075 1.562-9.104 1.562h-5.333c-5.028 0-7.543 0-9.104-1.562-1.563-1.562-1.563-4.076-1.563-9.104V16zm20 2.667a1.333 1.333 0 100-2.667 1.333 1.333 0 000 2.667zm0 5.333a1.333 1.333 0 100-2.667 1.333 1.333 0 000 2.667zm-5.334-6.667a1.333 1.333 0 11-2.666 0 1.333 1.333 0 012.666 0zm0 5.334a1.333 1.333 0 11-2.666 0 1.333 1.333 0 012.666 0zm-8-4a1.333 1.333 0 100-2.667 1.333 1.333 0 000 2.667zm0 5.333a1.334 1.334 0 100-2.667 1.334 1.334 0 000 2.667z" fill="currentColor"/></svg>