<svg width="32" height="32" viewBox="0 0 32 32" fill="none"><path d="M30.846 11.214C30.659 11 26.166 6 16 6 5.833 6 1.341 11 1.154 11.214a.624.624 0 00-.132.575l3.75 13.75a.624.624 0 00.403.427c.195.068.415.03.58-.095.031-.024 3.2-2.371 10.245-2.371.603 0 1.166.022 1.713.054l-.546 1.196h-.224a.623.623 0 00-.578.864.624.624 0 00.578.386h2.5a.624.624 0 100-1.25h-.903l.497-1.088c4.92.526 7.181 2.19 7.208 2.21a.631.631 0 00.834-.07.623.623 0 00.149-.263l3.75-13.75a.624.624 0 00-.132-.575zm-5.417 11.423c-1.27-.523-3.027-1.054-5.3-1.364l2.216-4.853h1.075l-1.196 4.384a.625.625 0 101.206.328l2.548-9.343a.625.625 0 10-1.206-.328l-1.011 3.709h-1.818a.624.624 0 00-.568.366l-2.553 5.59A31.68 31.68 0 0016 21c-4.393 0-7.475.832-9.428 1.637L3.734 12.233C5.335 10.938 9.248 8.5 16 8.5c6.808 0 10.689 2.433 12.268 3.726l-2.84 10.41z" fill="currentColor" stroke="currentColor"/><path d="M7.631 11.402a.667.667 0 00-.894.299l-1.333 2.666a.667.667 0 101.192.597l1.334-2.667a.667.667 0 00-.299-.895zm2.667 0a.667.667 0 00-.894.299l-2.667 5.333a.667.667 0 101.193.596l2.666-5.333a.667.667 0 00-.298-.895z" fill="currentColor"/></svg>