<svg width="90" height="59" fill="none" xmlns="http://www.w3.org/2000/svg"><path d="M89.872 54.373a.5.5 0 00-.11-.698l-3.64-2.647a.5.5 0 00-.588.809l3.235 2.353-2.352 3.235a.5.5 0 00.808.588l2.647-3.64zM.474.47c.053.321.11.646.172.976l.983-.184C1.569.94 1.512.62 1.46.305L.474.469zm.58 2.95c.145.64.304 1.293.48 1.957L2.5 5.12a56.465 56.465 0 01-.471-1.924l-.976.221zm1.025 3.899c.189.63.39 1.268.606 1.913l.948-.316a62.915 62.915 0 01-.595-1.884l-.959.287zm1.27 3.804c.227.62.468 1.246.72 1.876l.929-.373c-.25-.62-.487-1.237-.711-1.848l-.939.345zm1.5 3.734c.264.607.54 1.217.828 1.829l.905-.426a68.697 68.697 0 01-.817-1.803l-.917.4zm1.708 3.63c.3.592.611 1.186.934 1.78l.879-.476a69.367 69.367 0 01-.921-1.756l-.892.451zm1.919 3.535c.332.573.675 1.146 1.03 1.718l.85-.526a69.082 69.082 0 01-1.015-1.694l-.865.502zm2.113 3.413c.366.555.743 1.11 1.131 1.662l.819-.574a68.367 68.367 0 01-1.116-1.64l-.834.552zm2.307 3.285c.398.535.807 1.067 1.227 1.596l.784-.622a67.527 67.527 0 01-1.21-1.572l-.801.599zm2.498 3.15c.428.508.867 1.014 1.316 1.515l.745-.667a66.406 66.406 0 01-1.296-1.493l-.765.645zm2.684 2.997c.457.481.924.958 1.4 1.43l.704-.71c-.47-.466-.93-.935-1.38-1.409l-.724.69zm2.852 2.823c.487.454.984.903 1.49 1.347l.66-.753c-.5-.437-.989-.879-1.469-1.325l-.681.731zm3.021 2.645c.516.425 1.041.844 1.576 1.257l.612-.792a63.991 63.991 0 01-1.553-1.237l-.635.773zm3.18 2.456c.541.391 1.092.777 1.652 1.157l.561-.828a63.624 63.624 0 01-1.627-1.14l-.586.81zm3.327 2.254c.563.357 1.136.707 1.717 1.051l.509-.86a64.237 64.237 0 01-1.691-1.036l-.535.845zm3.46 2.045a60.77 60.77 0 001.775.943l.455-.89a65.227 65.227 0 01-1.749-.929l-.482.876zm3.576 1.831c.6.285 1.21.563 1.827.833l.401-.916a66.787 66.787 0 01-1.8-.82l-.428.903zm3.68 1.613c.615.249 1.239.49 1.87.724l.348-.938a68.528 68.528 0 01-1.844-.713l-.374.927zm3.765 1.395c.629.213 1.265.418 1.91.616l.293-.955a70.524 70.524 0 01-1.882-.608l-.32.947zm3.836 1.18c.64.178 1.288.348 1.943.511l.241-.97a75.385 75.385 0 01-1.916-.505l-.268.964zm3.893.97c.65.143 1.307.28 1.972.41l.19-.982a77.52 77.52 0 01-1.946-.405l-.216.977zm3.936.765c.66.112 1.327.216 2 .313l.142-.99a81.14 81.14 0 01-1.976-.309l-.166.986zm3.969.571c.663.08 1.332.151 2.007.216l.096-.995a86.14 86.14 0 01-1.984-.214l-.119.993zm3.994.385c.662.048 1.329.09 2.002.125l.051-.999a91.495 91.495 0 01-1.98-.124l-.073.998zm4.014.207c.657.02 1.32.033 1.989.04l.01-1a96.938 96.938 0 01-1.969-.04l-.03 1zm4.011.04c.657-.007 1.32-.02 1.988-.04l-.03-1c-.66.02-1.317.033-1.968.04l.01 1zm3.989-.117c.668-.032 1.34-.071 2.02-.116l-.067-.998c-.672.045-1.34.083-2.001.115l.048.999zm3.992-.265c.663-.055 1.33-.117 2.003-.185l-.1-.995c-.668.067-1.33.129-1.986.184l.083.996zm4-.404c.652-.077 1.308-.16 1.969-.248l-.133-.991c-.656.088-1.307.17-1.953.246l.117.993zm3.965-.532c.335-.05.67-.102 1.008-.155l-.156-.988c-.335.053-.668.105-1 .154l.147.99z" fill="#656565"/></svg>