<svg width="90" height="59" fill="none" xmlns="http://www.w3.org/2000/svg"><path d="M.188 54.373a.5.5 0 01.11-.698l3.64-2.647a.5.5 0 01.588.809L1.291 54.19l2.353 3.235a.5.5 0 11-.809.588l-2.647-3.64zM89.588.47c-.054.321-.112.646-.173.976l-.983-.184c.06-.322.116-.641.169-.956l.986.164zm-.58 2.95a57.631 57.631 0 01-.48 1.957l-.967-.255a56.97 56.97 0 00.47-1.924l.976.221zM87.98 7.317a63.84 63.84 0 01-.605 1.913l-.949-.316c.212-.635.41-1.264.596-1.884l.958.287zm-1.268 3.804c-.229.62-.469 1.246-.722 1.876l-.928-.373c.25-.62.486-1.237.711-1.848l.939.345zm-1.5 3.734a69.92 69.92 0 01-.83 1.829l-.904-.426a68.76 68.76 0 00.817-1.803l.916.4zm-1.71 3.63c-.3.592-.61 1.186-.933 1.78l-.88-.476c.319-.586.626-1.172.922-1.756l.892.451zm-1.918 3.535a70.296 70.296 0 01-1.03 1.718l-.85-.526c.349-.564.687-1.129 1.015-1.694l.865.502zm-2.113 3.413a69.68 69.68 0 01-1.132 1.662l-.818-.574c.382-.545.754-1.091 1.115-1.64l.835.552zm-2.307 3.285a68.43 68.43 0 01-1.227 1.596l-.784-.622a64.62 64.62 0 001.21-1.572l.801.599zm-2.498 3.15a67.168 67.168 0 01-1.316 1.515l-.745-.667c.442-.494.874-.992 1.296-1.493l.765.645zm-2.684 2.997c-.457.481-.924.958-1.4 1.43l-.704-.71c.47-.466.93-.935 1.38-1.409l.724.69zm-2.852 2.823a64.62 64.62 0 01-1.491 1.347l-.659-.753c.5-.437.989-.879 1.468-1.325l.682.731zm-3.022 2.645c-.515.425-1.04.844-1.576 1.257l-.61-.792a66.184 66.184 0 001.551-1.237l.635.773zm-3.18 2.456c-.54.391-1.091.777-1.651 1.157l-.561-.828a63.8 63.8 0 001.626-1.14l.586.81zm-3.326 2.254c-.563.357-1.136.707-1.717 1.051l-.51-.86a64.401 64.401 0 001.692-1.036l.535.845zm-3.46 2.045c-.583.322-1.174.636-1.775.943l-.456-.89a65.068 65.068 0 001.75-.929l.482.876zm-3.577 1.831c-.6.285-1.209.563-1.826.833l-.402-.916a66.93 66.93 0 001.8-.82l.428.903zm-3.679 1.613c-.616.249-1.24.49-1.871.724l-.347-.938c.622-.23 1.237-.468 1.844-.713l.374.927zm-3.766 1.395a69.9 69.9 0 01-1.909.616l-.294-.955a70.759 70.759 0 001.883-.608l.32.947zm-3.836 1.18a73.36 73.36 0 01-1.942.511l-.242-.97c.647-.161 1.285-.33 1.917-.505l.267.964zm-3.892.97c-.65.143-1.308.28-1.972.41l-.191-.982a77.614 77.614 0 001.947-.405l.216.977zm-3.936.765a82.15 82.15 0 01-2 .313l-.143-.99a81.13 81.13 0 001.977-.309l.166.986zm-3.97.571a87.09 87.09 0 01-2.006.216l-.096-.995a86.14 86.14 0 001.984-.214l.119.993zm-3.994.385c-.66.048-1.328.09-2.001.125l-.052-.999a91.464 91.464 0 001.98-.124l.073.998zm-4.013.207a97.5 97.5 0 01-1.989.04l-.01-1a97.54 97.54 0 001.968-.04l.03 1zm-4.011.04c-.658-.007-1.32-.02-1.988-.04l.029-1c.662.02 1.318.033 1.969.04l-.01 1zm-3.989-.117c-.668-.032-1.341-.071-2.02-.116l.067-.998c.672.045 1.34.083 2.001.115l-.048.999zm-3.993-.265c-.662-.055-1.33-.117-2.002-.185l.1-.995c.667.067 1.329.129 1.986.184l-.084.996zm-4-.404c-.65-.077-1.307-.16-1.968-.248l.133-.991c.656.088 1.306.17 1.953.246l-.117.993zm-3.964-.532c-.335-.05-.67-.102-1.008-.155l.156-.988c.335.053.668.105 1 .154l-.148.99z" fill="#656565"/></svg>