<svg width="30" height="30" fill="none" xmlns="http://www.w3.org/2000/svg"><path d="M29.825 28.39l-8.292-8.343a12.176 12.176 0 002.845-7.843C24.378 5.464 18.943 0 12.203 0 5.463 0 0 5.464 0 12.203c0 6.74 5.464 12.204 12.203 12.204 3.077 0 5.88-1.142 8.019-3.02l8.277 8.33a.937.937 0 101.326-1.327zM12.188 22.5c-5.67 0-10.313-4.642-10.313-10.312 0-5.67 4.642-10.313 10.313-10.313 5.67 0 10.312 4.642 10.312 10.313 0 5.67-4.642 10.312-10.312 10.312zm4.687-11.25h-3.75V7.5a.938.938 0 00-1.875 0v3.75H7.5a.938.938 0 000 1.875h3.75v3.75a.938.938 0 001.875 0v-3.75h3.75a.938.938 0 000-1.875z" fill="#fff"/></svg>