<svg width="12" height="15" fill="none" xmlns="http://www.w3.org/2000/svg"><g clip-path="url(#clip0_310_15025)"><path d="M10.243 1.82a5.855 5.855 0 00-8.485 0 6.166 6.166 0 00-1.3 2.01 6.423 6.423 0 00-.457 2.383c0 .819.155 1.629.457 2.383a6.166 6.166 0 001.3 2.01L6 15l4.243-4.394a6.166 6.166 0 001.3-2.01 6.422 6.422 0 00.458-2.383c0-.819-.156-1.63-.458-2.384a6.165 6.165 0 00-1.3-2.01zM6 8.29c-.5 0-.97-.206-1.326-.579a2.03 2.03 0 01-.548-1.395c0-.524.197-1.026.548-1.396A1.817 1.817 0 016 4.342c.501 0 .972.205 1.326.578.352.37.549.872.549 1.396a2.03 2.03 0 01-.549 1.395A1.817 1.817 0 016 8.29z" fill="#1D79D3"/></g><defs><clipPath id="clip0_310_15025"><path fill="#fff" d="M0 0h12v15H0z"/></clipPath></defs></svg>