<svg width="24" height="29" fill="none" xmlns="http://www.w3.org/2000/svg"><path fill-rule="evenodd" clip-rule="evenodd" d="M7.636 28.095c1.79-.368 6.775-1.93 11.224-8.17 4.447-6.241 4.296-11.462 4.06-13.275-.36-2.763-2.91-5.078-5.515-5.712a1.864 1.864 0 00-1.774.502c-1.756 1.793-2.767 4.231-3.662 6.164a1.907 1.907 0 00.737 2.43l2.744 1.403a.609.609 0 01.307.74c-.385 1.098-1.117 2.758-2.054 4.073-.936 1.314-2.328 2.625-3.299 3.42a.613.613 0 01-.839-.067l-1.994-2.151a1.906 1.906 0 00-2.64.016C3.374 18.98 1.548 20.682.368 22.859a1.864 1.864 0 00.075 1.897c1.456 2.267 4.454 3.902 7.192 3.339z" fill="#373737"/></svg>