<svg width="20" height="20" fill="none" xmlns="http://www.w3.org/2000/svg"><g clip-path="url(#clip0_310_15108)"><path fill-rule="evenodd" clip-rule="evenodd" d="M6.818.453H.455v6.364h2.12V2.574h4.243V.454zM.455 19.544V13.18h2.12v4.243h4.243v2.121H.455zM13.182.454v2.12h4.242v4.243h2.122V.453h-6.364zm4.242 12.726h2.122v6.364h-6.364v-2.121h4.242V13.18zM4.697 4.696h4.242v4.242H4.697V4.696zm0 6.363h4.242v4.243H4.697v-4.243zm10.606-6.363h-4.242v4.242h4.242V4.696zm-4.242 6.363h4.242v4.243h-4.242v-4.243z" fill="#373737"/></g><defs><clipPath id="clip0_310_15108"><path fill="#fff" d="M0 0h20v20H0z"/></clipPath></defs></svg>