<svg width="30" height="30" viewBox="0 0 30 30" fill="none"><path d="M22.632 6.579h-1.526a.763.763 0 100 1.526h1.526a.763.763 0 100-1.526zM14.92 3.948l-.764-1.527a.763.763 0 10-1.365.683l.763 1.527a.764.764 0 001.366-.683zm5-1.868a.765.765 0 00-1.023.341l-.764 1.527a.763.763 0 001.366.683l.763-1.527a.763.763 0 00-.341-1.024zm-7.972 4.5h-1.526a.763.763 0 100 1.526h1.526a.763.763 0 100-1.526zm-4.58 7.683H4.316a.763.763 0 00-.763.763v12.212c0 .421.341.763.763.763h3.053a.763.763 0 00.763-.763V15.025a.763.763 0 00-.763-.763zm19.066 2.023c-.134-1.184-1.24-2.023-2.432-2.023h-5.95c.505-.905.777-3.466.765-4.513-.02-1.731-1.454-3.12-3.186-3.12H15a.763.763 0 00-.763.764c0 1.765-.687 4.95-1.983 6.247-.873.872-1.618 1.188-2.596 1.677V26.77c1.497.499 3.398 1.231 6.295 1.231h4.993c1.645 0 2.926-1.524 2.288-3.133a2.293 2.293 0 001.527-3.053c1.637-.446 2.239-2.467 1.103-3.736a2.285 2.285 0 00.57-1.793z" fill="currentColor"/></svg>