<svg width="30" height="30" viewBox="0 0 30 30" fill="none"><path d="M11.866 9.431a.66.66 0 00.41-.136l1.161-.928c.227-.182.227-.475 0-.657a.687.687 0 00-.82 0l-1.161.929c-.227.181-.227.475 0 .656a.604.604 0 00.188.101c.07.023.146.035.222.035zm3.072-1.72l-3.482 2.785c-.227.181-.227.475 0 .656a.605.605 0 00.188.101c.07.024.146.036.222.036a.66.66 0 00.41-.136l3.482-2.786c.227-.182.227-.475 0-.657a.687.687 0 00-.82 0z" fill="currentColor"/><path d="M27.643 4.821a3.356 3.356 0 00-3.022-1.891H14.125c-2.01 0-3.928.872-5.264 2.394L3.775 11.12C2.628 12.425 1.995 14.11 2 15.93l.906 7.08a4.704 4.704 0 001.31 2.697 4.542 4.542 0 003.254 1.366h18.363c1.195 0 2.167-.985 2.167-2.195V6.352c0-.532-.123-1.055-.357-1.53zM6.207 13.306l5.086-5.795a3.775 3.775 0 012.834-1.29h10.495c.05 0 .092.027.128.13v8.65H5.293c.1-.58.378-1.082.914-1.695zm19.085 9.377h-19.5a.545.545 0 01-.542-.549c0-.303.242-.549.542-.549h19.5c.3 0 .541.246.541.55a.545.545 0 01-.541.548zm0-3.292h-3.25a.536.536 0 01-.5-.339.556.556 0 01.292-.717.536.536 0 01.208-.042h3.25a.535.535 0 01.5.339.556.556 0 01-.293.717.535.535 0 01-.207.042z" fill="currentColor"/></svg>