<svg width="30" height="30" viewBox="0 0 30 30" fill="none"><g clip-path="url(#clip0_310_15152)" fill="currentColor"><path d="M9.375 18.923a2.635 2.635 0 10-.001 5.27 2.635 2.635 0 00.001-5.27zm0 3.781a1.146 1.146 0 110-2.291 1.146 1.146 0 010 2.291zm13.9-3.781a2.635 2.635 0 10-.002 5.27 2.635 2.635 0 00.002-5.27zm0 3.781a1.146 1.146 0 110-2.291 1.146 1.146 0 010 2.291zM12.34 10.824c0 .37-.303.672-.672.672H2.403a.673.673 0 01-.672-.672v-.403c0-.369.303-.671.672-.671h9.266c.37 0 .672.302.672.671v.403z"/><path d="M28.44 14.757c-.967-.252-1.52-.41-1.9-1.143l-1.268-2.569c-.38-.733-1.366-1.333-2.191-1.333h-1.736s-.233.005-.233-.23V7.327c0-.835-.473-1.518-1.479-1.518H5.487c-1.44 0-2.123.683-2.123 1.518v1.35s0 .403.389.403h7.916c.74 0 1.343.602 1.343 1.342v.403c0 .74-.603 1.343-1.343 1.343H3.753s-.389-.032-.389.388v.464c0 .37.506.37.506.37H9.2c.74 0 1.342.601 1.342 1.342v.403c0 .74-.602 1.343-1.343 1.343H3.955s-.59-.011-.59.459V20.2c0 .835.683 1.519 1.518 1.519h.84c.19 0 .217-.106.217-.16a3.438 3.438 0 013.435-3.434 3.439 3.439 0 013.435 3.435c0 .053-.015.159.13.159h6.771c.134 0 .129-.113.129-.16a3.438 3.438 0 013.435-3.434 3.438 3.438 0 013.434 3.435c0 .053 0 .159.083.159H28.5c.826 0 1.501-.675 1.501-1.501v-2.852c0-2.4-.758-2.4-1.56-2.61zm-2.857-.134h-4.272c-.176 0-.2-.172-.2-.172v-3.559s-.01-.136.217-.136h1.22c.734 0 1.61.533 1.949 1.186l1.129 2.286c.044.086.095.169.153.247.04.053-.027.148-.195.148z"/><path d="M9.87 15.137c0 .37-.302.671-.67.671H.67a.673.673 0 01-.67-.671v-.403c0-.37.302-.671.671-.671H9.2c.37 0 .671.302.671.67v.404z"/></g><defs><clipPath id="clip0_310_15152"><path fill="currentColor" d="M0 0h30v30H0z"/></clipPath></defs></svg>