<svg width="30" height="30" viewBox="0 0 30 30" fill="none"><path d="M24.844 5.157c-3.734 0-7.456-1.75-9.053-4.254a.938.938 0 00-1.582 0c-1.597 2.505-5.32 4.254-9.053 4.254a.937.937 0 00-.937.937v9.375c0 6.495 6.297 11.095 10.554 12.16a.942.942 0 00.454 0c4.257-1.065 10.554-5.665 10.554-12.16V6.094a.937.937 0 00-.937-.937zM15 20.625A6.562 6.562 0 1115 7.5a6.562 6.562 0 010 13.125zm3.475-10.037a.937.937 0 010 1.325l-5.625 5.625a.937.937 0 01-1.501-.243l-.938-1.875a.938.938 0 111.678-.84l.355.713 4.706-4.705a.938.938 0 011.325 0z" fill="currentColor"/></svg>