<svg width="30" height="30" viewBox="0 0 30 30" fill="none"><path d="M23.853 20.813l-5.518-5.519 4.48-4.479a4.462 4.462 0 004.178-1.185c1.242-1.241 1.583-3.026 1.062-4.588l-2.11 2.108c-.745.748-1.977.725-2.753-.052-.774-.775-.798-2.006-.053-2.753l2.107-2.108A4.454 4.454 0 0020.66 3.3a4.457 4.457 0 00-1.18 4.178L15 11.955l-4.476-4.476a4.468 4.468 0 00-1.184-4.18C8.097 2.057 6.313 1.715 4.752 2.237l2.107 2.109c.747.746.725 1.978-.053 2.754-.774.775-2.003.798-2.753.053l-2.107-2.11c-.523 1.56-.181 3.346 1.063 4.588 1.131 1.135 2.72 1.52 4.178 1.183l4.477 4.476-5.517 5.517a3.566 3.566 0 00-2.795 1.033 3.606 3.606 0 105.099 5.102c.767-.767 1.099-1.794 1.035-2.798L15 18.628l5.518 5.518a3.583 3.583 0 001.033 2.797 3.606 3.606 0 105.101-5.1 3.578 3.578 0 00-2.799-1.03zM6.39 26.224l-1.835-.49-.489-1.835 1.341-1.343 1.835.491.491 1.834-1.343 1.343zm19.052-.487l-1.834.49-1.343-1.344.49-1.834 1.835-.49 1.344 1.342-.492 1.836z" fill="currentColor"/></svg>